<svg id="Component_4_1" data-name="Component 4 – 1" xmlns="http://www.w3.org/2000/svg" xmlns:xlink="http://www.w3.org/1999/xlink" width="127.067" height="34.016" viewBox="0 0 127.067 34.016">
  <defs>
    <clipPath id="clip-path">
      <rect id="Rectangle_168" data-name="Rectangle 168" width="127.067" height="34.016" transform="translate(0 0)" fill="none"/>
    </clipPath>
  </defs>
  <g id="Group_1092" data-name="Group 1092" clip-path="url(#clip-path)">
    <path id="Path_1783" data-name="Path 1783" d="M77.152,0h1.712a27.24,27.24,0,0,1,9.722,2.048V9.766c-.188.048-.376-.09-.542-.165A22.352,22.352,0,0,0,77.568,7.554c-4.134.2-7.182,1.715-8.514,4.885-1.4,3.339-.949,8.553.878,10.935,1.968,2.566,5.591,3.377,10.225,3.046.1-1.545.012-3.269.041-4.883h-5.13V14.568H88.586V32.723a56.114,56.114,0,0,1-9.64,1.293H76.359c-5.475-.325-9.7-1.838-12.729-4.716a16.3,16.3,0,0,1-4.759-12.69C59.289,5.392,66,.553,77.152,0" fill="#fff"/>
    <path id="Path_1784" data-name="Path 1784" d="M105.364,8.849c-2.756,1.462-4.543,4.638-4.258,8.849.348,5.155,3.557,8.78,9.139,8.471a7.925,7.925,0,0,0,5.8-2.963,9.85,9.85,0,0,0,1.92-6.8,9.376,9.376,0,0,0-2.545-6.262,8.239,8.239,0,0,0-6.551-2.252,8.882,8.882,0,0,0-3.508.959M108.872,0h1.373c10.164.7,15.97,6.008,16.822,16.068v1.88c-.843,9.9-6.5,15.225-16.445,16.068H108.5c-.01-.034-.035-.051-.084-.043A17.11,17.11,0,0,1,96.6,29.049,16.752,16.752,0,0,1,92.05,16.821,18.545,18.545,0,0,1,93.427,9.81c2.5-5.965,7.6-9.344,15.445-9.81" fill="#fff"/>
    <path id="Path_1785" data-name="Path 1785" d="M15.341,34.016H13.127c-.006-.034-.035-.049-.083-.042C5.628,33.586,1.4,30.011.272,23.374a34.276,34.276,0,0,1-.248-5.593C.024,11.957-.013,5.913.066.252,2.9.279,5.853.2,8.621.295V16.109c0,2.77-.175,5.5.626,7.306.819,1.842,2.389,2.934,5.009,2.922,2.575-.01,4.165-1.086,4.967-2.922.784-1.8.583-4.634.583-7.345,0-5.266-.035-10.7.041-15.818C22.7.279,25.663.2,28.447.295V17.822a33.692,33.692,0,0,1-.248,5.635c-1.163,6.643-5.44,10.129-12.855,10.559" fill="#fff"/>
    <path id="Path_1786" data-name="Path 1786" d="M40.007,7.348v7.8c2.34-.1,4.7.323,6.133-.543s2.029-3.84,1.087-5.676c-1.055-2.045-4.063-1.744-7.179-1.71-.049.007-.047.066-.041.127M32.034.252c4.305.135,8.7-.2,12.561.042,3.9.246,6.936,1.5,8.935,3.672a11.383,11.383,0,0,1,2.336,9.766A9.426,9.426,0,0,1,50.4,20.868c1.369,1.431,2.444,4.13,4.175,5.385a4.581,4.581,0,0,0,3.84.416v6.386c-2.274.958-5.724.373-7.6-.458-2.635-1.17-4.195-3.505-5.55-6.053-.789-1.48-1.45-3.476-3.005-4.132a7,7,0,0,0-2.212-.168c-.1,3.69-.015,7.556-.041,11.313H31.993V.377c-.007-.061-.008-.118.041-.125" fill="#fff"/>
  </g>
</svg>
